# xmcd CD database file generated by Grip 3.3.1
# 
# Track frame offsets:
#       150
#       21640
#       46605
#       73199
#       107289
#       129348
#       155961
#       177552
#       203287
#       223931
# 
# Disc length: 3392 seconds
# 
# Revision: 1
# Processed by: cddbd v1.5.2PL0 Copyright (c) Steve Scherf et al.
# Submitted via: Grip 3.3.1
# 
DISCID=8e0d3e0a
DTITLE=Anael - Once Upon a Dream
DYEAR=2005
DGENRE=New Age
TTITLE0=Once Upon a Dream
TTITLE1=The Maiden Whose Voice Made the Animals Sing
TTITLE2=White Light Valley
TTITLE3=No Ordinary Year
TTITLE4=Triumphant
TTITLE5=If Life Were But a Fairytale
TTITLE6=Reve D´ete
TTITLE7=While Time Is Slowly Fleeting
TTITLE8=Though Lovers Be Lost
TTITLE9=Take the High Road
EXTD=YEAR: 2005
EXTT0=
EXTT1=
EXTT2=
EXTT3=
EXTT4=
EXTT5=
EXTT6=
EXTT7=
EXTT8=
EXTT9=
PLAYORDER=
